<?xml version="1.0" encoding="utf-8"?>
<!-- Generator: Adobe Illustrator 13.0.2, SVG Export Plug-In  -->
<!DOCTYPE svg PUBLIC "-//W3C//DTD SVG 1.1//EN" "http://www.w3.org/Graphics/SVG/1.1/DTD/svg11.dtd" [
	<!ENTITY ns_flows "http://ns.adobe.com/Flows/1.0/">
]>
<svg version="1.1"
	 xmlns="http://www.w3.org/2000/svg" xmlns:xlink="http://www.w3.org/1999/xlink" xmlns:a="http://ns.adobe.com/AdobeSVGViewerExtensions/3.0/"
	 x="0px" y="0px" width="673px" height="673px" viewBox="0.1 -0.5 673 673" enable-background="new 0.1 -0.5 673 673"
	 xml:space="preserve">
<defs>
</defs>
<g id="XMLID_4_" display="none">
	<g display="inline">
		<path fill="#DAD9D9" d="M89.5,14.2C51.7,30.5,22.2,62.7,9.7,102.3c0,0.1-0.1,0.2-0.1,0.4c-4.8,14.4-7.3,29.8-7.3,45.8
			c0,125.4,0,250.9,0,376.3c0,79.3,64.8,144.3,144,144.3c126.1,0,252.1,0,378.1,0c79.3,0,144.2-64.9,144.2-144.4
			c0-126.3,0-252.5,0-378.8c0-79.4-64.9-144.4-144.2-144.4c-125.2,0-250.3,0-375.5,0C127.8,1.6,107.7,6.1,89.5,14.2z M1.6,148.3
			c0-80.9,66.2-147.2,147-147.2c125.7,0,251.3,0,377,0c79.3,0,144.2,65,144.2,144.4c0,126.7,0,253.4,0,380.2
			c0,79.4-64.9,144.4-144.2,144.4c-126.6,0-253.2,0-379.8,0c-79.3,0-144.2-64.9-144.2-144.4C1.6,399.9,1.6,274.1,1.6,148.3z"/>
		<radialGradient id="SVGID_1_" cx="331.6685" cy="331.7056" r="464.2749" gradientUnits="userSpaceOnUse">
			<stop  offset="0" style="stop-color:#FFFFFF"/>
			<stop  offset="0.5413" style="stop-color:#FDFCFC"/>
			<stop  offset="0.9754" style="stop-color:#F6F4F2"/>
			<stop  offset="1" style="stop-color:#F5F3F1"/>
		</radialGradient>
		<path fill="url(#SVGID_1_)" d="M24.4,517.8c0,66.5,54.4,120.7,120.8,120.7h373c66.5,0,120.8-54.3,120.8-120.7v-373
			c0-66.5-54.4-120.8-120.8-120.8h-373c-66.4,0-120.8,54.4-120.8,120.8V517.8z M5.5,148.9C5.5,69,70.5,3.6,150,3.6h368.9
			c34.5,0,66.3,12.4,91.1,33c0.1,0,0.1,0.1,0.2,0.1c30.5,26.1,50,64.8,50,107.9v373c0,78-63.9,142-142,142h-373
			c-42.5,0-80.7-18.9-106.8-48.7c0,0-0.1-0.1-0.1-0.1C17.8,586,5.5,554.2,5.5,519.5V148.9z"/>
		<path fill="#BCBBBB" d="M148.4,664.7c-57.5,0-107.3-34.3-130.2-83.6C23.7,592,30.4,602,38.3,611c0,0,0,0.1,0.1,0.1
			c26.4,32.1,66.2,52.6,110.6,52.6h369.9c78.9,0,143.4-64.9,143.4-144.1V147.9c0-44.5-20.3-84.5-52.1-111c-0.1-0.1-0.1-0.1-0.2-0.1
			c-15.7-13.4-34.3-23.4-54.6-28.9c62,15.9,108.2,72.7,108.2,139.7c0,124.4,0,248.8,0,373.1c0,79.3-64.6,144.2-143.6,144.2
			C396.1,664.7,272.3,664.7,148.4,664.7z"/>
		<path fill="#C8C7C7" d="M3.8,530.5c0.7,7.8,2,15.4,4,22.8c14.5,64.2,72,112.5,140.2,112.5c124.4,0,248.8,0,373.2,0
			c79.1,0,143.7-64.9,143.7-144.2c0-124.9,0-249.7,0-374.6c0-78.4-63.2-142.7-141-144.2c0,0-0.1,0-0.2,0c-1.8-0.1-3.6-0.1-5.5-0.1
			h-373c-3.7,0-7.3,0.1-10.9,0.4c4.9-0.5,9.9-0.8,15-0.8c124.3,0,248.6,0,372.9,0C601.3,2.4,666,67.3,666,146.7
			c0,125.3,0,250.6,0,375.9c0,79.3-64.7,144.3-143.9,144.3c-124.9,0-249.8,0-374.8,0C70.9,666.9,7.8,606.2,3.8,530.5z"/>
		<radialGradient id="SVGID_2_" cx="331.6709" cy="331.2407" r="464.6163" gradientUnits="userSpaceOnUse">
			<stop  offset="0" style="stop-color:#FFFFFF"/>
			<stop  offset="0.5413" style="stop-color:#FDFCFC"/>
			<stop  offset="0.9754" style="stop-color:#F6F4F2"/>
			<stop  offset="1" style="stop-color:#F5F3F1"/>
		</radialGradient>
		<path fill="url(#SVGID_2_)" d="M412,411.2c44.2-44.3,44-116.1-0.4-160.2c-44.3-44.1-116.1-43.9-160.2,0.4
			c-44.1,44.4-44,116.1,0.4,160.2C296.1,455.7,367.8,455.5,412,411.2z M171.1,453.1l22.5-40c-7.9-13.3-13.6-27.3-17.4-41.8
			L131.9,359v-55l44.2-12.5c3.7-14.5,9.4-28.6,17.3-41.8l-22.5-40l38.9-39l40,22.5c13.3-7.9,27.4-13.6,41.8-17.4l12.4-44.3l55,0.1
			l12.5,44.1c14.5,3.7,28.6,9.5,41.8,17.3l40-22.5l39,38.9l-22.4,40c7.8,13.3,13.5,27.4,17.3,41.9l44.3,12.3v55l-44.2,12.4
			c-3.7,14.6-9.4,28.7-17.2,41.8l22.5,40l-38.9,39l-40-22.5c-13.3,7.8-27.4,13.6-41.8,17.3L359.3,531h-55l-12.5-44.1
			c-14.5-3.7-28.6-9.5-41.8-17.3l-40,22.5L171.1,453.1z"/>
		<radialGradient id="SVGID_3_" cx="331.667" cy="331.2729" r="464.5765" gradientUnits="userSpaceOnUse">
			<stop  offset="0" style="stop-color:#FFFFFF"/>
			<stop  offset="0.5413" style="stop-color:#FDFCFC"/>
			<stop  offset="0.9754" style="stop-color:#F6F4F2"/>
			<stop  offset="1" style="stop-color:#F5F3F1"/>
		</radialGradient>
		<path fill="url(#SVGID_3_)" d="M89.5,14.2C52.1,31,22.8,63,9.7,102.3C22.2,62.7,51.7,30.5,89.5,14.2z"/>
		<path fill="#8A001D" d="M131.9,359l44.3,12.3c3.7,14.5,9.4,28.6,17.4,41.8l-22.5,40l39,38.9l40-22.5c13.2,7.8,27.3,13.6,41.8,17.3
			l12.5,44.1h55l12.4-44.2c14.5-3.8,28.6-9.5,41.8-17.3l40,22.5l38.9-39l-22.5-40c7.8-13.2,13.5-27.3,17.2-41.8l44.2-12.4v-55
			l-44.3-12.3c-3.8-14.5-9.4-28.7-17.3-41.9l22.4-40l-39-38.9l-40,22.5c-13.2-7.8-27.3-13.6-41.8-17.3L359,131.6l-55-0.1l-12.4,44.3
			c-14.5,3.7-28.6,9.5-41.8,17.4l-40-22.5l-38.9,39l22.5,40c-7.9,13.2-13.6,27.3-17.3,41.8L131.9,304V359z M24.4,517.8v-373
			c0-66.5,54.4-120.8,120.8-120.8h373c66.5,0,120.8,54.4,120.8,120.8v373c0,66.5-54.4,120.7-120.8,120.7h-373
			C78.7,638.5,24.4,584.3,24.4,517.8z"/>
		<path fill="#CECDCD" d="M149.3,2.4c-5.1,0-10.1,0.3-15,0.8c0,0-0.1,0-0.1,0c-6.4,0.5-12.6,1.4-18.7,2.7C126.3,3.3,137.5,2,149.1,2
			c124.8,0,249.5,0,374.3,0c79.2,0,143.9,64.9,143.9,144.3c0,125.9,0,251.6,0,377.4c0,79.4-64.7,144.4-143.9,144.4
			c-125.6,0-251,0-376.5,0C67.6,668,2.9,603,2.9,523.7c0-125.1,0-250.1,0-375.2c0-4.5,0.2-9,0.6-13.4c-0.2,3.2-0.3,6.4-0.3,9.6v373
			c0,4.3,0.2,8.5,0.6,12.7c0,0,0,0,0,0c4.1,75.8,67.1,136.4,143.6,136.4c125,0,249.9,0,374.8,0c79.1,0,143.9-64.9,143.9-144.3
			c0-125.4,0-250.6,0-375.9C666,67.3,601.3,2.4,522.2,2.4C397.9,2.4,273.6,2.4,149.3,2.4z"/>
		<path fill="#D4D3D3" d="M2.9,523.7C2.9,603,67.6,668,146.8,668c125.5,0,250.9,0,376.5,0c79.2,0,143.9-64.9,143.9-144.4
			c0-125.8,0-251.5,0-377.4C667.3,66.9,602.5,2,523.3,2C398.6,2,273.9,2,149.1,2c-11.6,0-22.8,1.4-33.6,3.9c-9,1.9-17.7,4.7-26,8.3
			c18.2-8.1,38.3-12.7,59.4-12.7c125.2,0,250.3,0,375.5,0c79.3,0,144.2,64.9,144.2,144.4c0,126.3,0,252.5,0,378.8
			c0,79.4-64.9,144.4-144.2,144.4c-126.1,0-252.1,0-378.1,0c-79.2,0-144-64.9-144-144.3c0-125.5,0-250.9,0-376.3
			c0-16,2.6-31.4,7.3-45.8c-3.2,10.4-5.3,21.2-6.1,32.5c-0.4,4.4-0.6,8.9-0.6,13.4C2.9,273.6,2.9,398.6,2.9,523.7z"/>
		<path fill="#C2C1C1" d="M18.2,581.2c22.9,49.2,72.7,83.6,130.2,83.6c123.8,0,247.7,0,371.5,0c79,0,143.6-64.9,143.6-144.2
			c0-124.3,0-248.7,0-373.1c0-67-46.2-123.8-108.2-139.7c0,0-0.1,0-0.1,0c-10.1-2.8-20.6-4.4-31.5-4.8c77.8,1.4,141,65.7,141,144.2
			c0,124.9,0,249.6,0,374.6c0,79.3-64.7,144.2-143.7,144.2c-124.4,0-248.8,0-373.2,0c-68.2,0-125.7-48.3-140.2-112.5
			C10.3,563,13.8,572.4,18.2,581.2z"/>
		<path fill="#E0DFDF" d="M145.2,671.2c-79.4,0-144.3-64.9-144.3-144.4c0-126.3,0-252.4,0-378.6C0.9,67.1,67.3,0.7,148.4,0.7
			c126.1,0,252.2,0,378.3,0c79.4,0,144.4,65,144.4,144.4c0,127.2,0,254.4,0,381.6c0,79.5-64.9,144.5-144.4,144.5
			C399.5,671.2,272.4,671.2,145.2,671.2z M1.6,525.8c0,79.4,64.9,144.4,144.2,144.4c126.6,0,253.2,0,379.8,0
			c79.3,0,144.2-65,144.2-144.4c0-126.7,0-253.4,0-380.2c0-79.4-64.9-144.4-144.2-144.4c-125.7,0-251.3,0-377,0
			c-80.9,0-147,66.2-147,147.2C1.6,274.1,1.6,399.9,1.6,525.8z"/>
		<radialGradient id="SVGID_4_" cx="331.6689" cy="331.2739" r="464.5789" gradientUnits="userSpaceOnUse">
			<stop  offset="0" style="stop-color:#FFFFFF"/>
			<stop  offset="0.5413" style="stop-color:#FDFCFC"/>
			<stop  offset="0.9754" style="stop-color:#F6F4F2"/>
			<stop  offset="1" style="stop-color:#F5F3F1"/>
		</radialGradient>
		<path fill="url(#SVGID_4_)" d="M4.9,520.6c0,21.6,4.8,42.1,13.4,60.6c-4.4-8.8-8-18.1-10.5-27.8c-2.3-10.2-3.5-20.8-3.5-31.7
			c0-124.4,0-248.6,0-372.9C4.2,68.4,69.6,2.9,149.6,2.9c123.8,0,247.6,0,371.5,0c0.8,0,1.7,0,2.5,0c0,0,0.1,0,0.2,0
			c10.8,0.4,21.4,2.1,31.5,4.8c-11.3-2.9-23.1-4.4-35.3-4.4c-123.4,0-246.8,0-370.1,0C70.1,3.3,4.9,68.7,4.9,148.8
			C4.9,272.8,4.9,396.6,4.9,520.6z"/>
		<path fill="#8A001D" d="M251.8,411.6c-44.4-44.1-44.5-115.8-0.4-160.2c44.1-44.4,115.9-44.6,160.2-0.4
			c44.4,44.1,44.6,115.9,0.4,160.2C367.8,455.5,296.1,455.7,251.8,411.6z"/>
		<radialGradient id="SVGID_5_" cx="331.6689" cy="331.2212" r="464.5415" gradientUnits="userSpaceOnUse">
			<stop  offset="0" style="stop-color:#FFFFFF"/>
			<stop  offset="0.5413" style="stop-color:#FDFCFC"/>
			<stop  offset="0.9754" style="stop-color:#F6F4F2"/>
			<stop  offset="1" style="stop-color:#F5F3F1"/>
		</radialGradient>
		<path fill="url(#SVGID_5_)" d="M18.2,581.2c-8.6-18.4-13.4-39-13.4-60.6c0-124,0-247.8,0-371.8C4.9,68.7,70.1,3.3,149.8,3.3
			c123.4,0,246.7,0,370.1,0c12.2,0,24,1.5,35.3,4.4c0,0,0.1,0,0.1,0c20.4,5.6,39,15.6,54.6,28.9c-24.8-20.6-56.6-33-91.1-33H150
			C70.5,3.6,5.5,69,5.5,148.9v370.7c0,34.6,12.3,66.5,32.8,91.5C30.4,602,23.7,592,18.2,581.2z"/>
		<radialGradient id="SVGID_6_" cx="331.9033" cy="331.3057" r="464.7947" gradientUnits="userSpaceOnUse">
			<stop  offset="0" style="stop-color:#FFFFFF"/>
			<stop  offset="0.5413" style="stop-color:#FDFCFC"/>
			<stop  offset="0.9754" style="stop-color:#F6F4F2"/>
			<stop  offset="1" style="stop-color:#F5F3F1"/>
		</radialGradient>
		<path fill="url(#SVGID_6_)" d="M9.7,102.3C22.8,63,52.1,31,89.5,14.2c8.3-3.6,17-6.4,26-8.3C55.3,20.3,9.3,72.1,3.5,135.1
			c0.8-11.2,2.8-22.1,6.1-32.5C9.7,102.5,9.7,102.4,9.7,102.3z"/>
		<radialGradient id="SVGID_7_" cx="331.6685" cy="331.2749" r="464.5793" gradientUnits="userSpaceOnUse">
			<stop  offset="0" style="stop-color:#FFFFFF"/>
			<stop  offset="0.5413" style="stop-color:#FDFCFC"/>
			<stop  offset="0.9754" style="stop-color:#F6F4F2"/>
			<stop  offset="1" style="stop-color:#F5F3F1"/>
		</radialGradient>
		<path fill="url(#SVGID_7_)" d="M134.2,3.2C61.1,10.9,3.6,73.3,3.6,148.6c0,124.7,0,249.4,0,374.1c0,2.6,0.1,5.2,0.2,7.8
			c-0.4-4.2-0.6-8.4-0.6-12.7v-373c0-3.2,0.1-6.5,0.3-9.6C9.3,72.1,55.3,20.3,115.5,5.9C121.6,4.6,127.8,3.7,134.2,3.2z"/>
		<path fill="#E5E5E5" d="M0.9,526.9c0,79.4,64.9,144.4,144.3,144.4c127.2,0,254.3,0,381.5,0c79.4,0,144.4-65,144.4-144.5
			c0-127.2,0-254.4,0-381.6C671,65.7,606.1,0.7,526.6,0.7c-126.1,0-252.1,0-378.3,0C67.3,0.7,0.9,67.1,0.9,148.2
			C0.9,274.4,0.9,400.6,0.9,526.9z M144.7,672.3c-79.4,0-144.4-65-144.4-144.4V148.1C0.3,66.8,66.8,0.3,148.1,0.3h379.7
			c79.5,0,144.5,65,144.5,144.5v383c0,79.5-65,144.5-144.5,144.5H144.7z"/>
		<radialGradient id="SVGID_8_" cx="331.6689" cy="331.2744" r="464.5795" gradientUnits="userSpaceOnUse">
			<stop  offset="0" style="stop-color:#FFFFFF"/>
			<stop  offset="0.5413" style="stop-color:#FDFCFC"/>
			<stop  offset="0.9754" style="stop-color:#F6F4F2"/>
			<stop  offset="1" style="stop-color:#F5F3F1"/>
		</radialGradient>
		<path fill="url(#SVGID_8_)" d="M4.2,521.6c0,10.9,1.2,21.5,3.5,31.7c-1.9-7.4-3.3-15-4-22.8c0,0,0,0,0,0c-0.1-2.6-0.2-5.2-0.2-7.8
			c0-124.7,0-249.4,0-374.1C3.6,73.3,61.1,10.9,134.2,3.2c0.1,0,0.1,0,0.1,0c3.6-0.3,7.2-0.4,10.9-0.4h373c1.8,0,3.7,0,5.5,0.1
			c-0.8,0-1.7,0-2.5,0c-123.9,0-247.7,0-371.5,0C69.6,2.9,4.2,68.4,4.2,148.7C4.2,273,4.2,397.3,4.2,521.6z"/>
		<path fill="#B6B5B4" d="M38.4,611.1c26.1,29.8,64.3,48.7,106.8,48.7h373c78.1,0,142-63.9,142-142v-373c0-43.1-19.4-81.9-50-107.9
			c31.8,26.5,52.1,66.5,52.1,111v371.7c0,79.3-64.5,144.1-143.4,144.1H148.9C104.6,663.7,64.8,643.1,38.4,611.1z"/>
	</g>
	<g display="inline">
	</g>
</g>
<text transform="matrix(1 0 0 1 260.1255 365.6255)" display="none" fill="#FFFFFF" font-family="'MyriadPro-Bold'" font-size="100">&lt;/&gt;</text>
<g id="XMLID_3_">
	<g>
		<path fill="#E5E5E5" d="M672.3,144.8v383c0,79.5-65,144.5-144.5,144.5H144.7c-79.4,0-144.4-65-144.4-144.4V148.1
			C0.3,66.8,66.8,0.3,148.1,0.3h379.7C607.3,0.3,672.3,65.3,672.3,144.8z M671,526.7c0-127.2,0-254.4,0-381.6
			C671,65.7,606.1,0.7,526.6,0.7c-126.1,0-252.1,0-378.3,0C67.3,0.7,0.9,67.1,0.9,148.2c0,126.2,0,252.4,0,378.6
			c0,79.4,64.9,144.4,144.3,144.4c127.2,0,254.3,0,381.5,0C606.1,671.2,671,606.2,671,526.7z"/>
		<path fill="#E0DFDF" d="M671,145.1c0,127.2,0,254.4,0,381.6c0,79.5-64.9,144.5-144.4,144.5c-127.2,0-254.2,0-381.5,0
			c-79.4,0-144.3-64.9-144.3-144.4c0-126.3,0-252.4,0-378.6C0.9,67.1,67.3,0.7,148.4,0.7c126.1,0,252.2,0,378.3,0
			C606.1,0.7,671,65.7,671,145.1z M669.8,525.7c0-126.7,0-253.4,0-380.2c0-79.4-64.9-144.4-144.2-144.4c-125.7,0-251.3,0-377,0
			c-80.9,0-147,66.2-147,147.2c0,125.9,0,251.6,0,377.5c0,79.4,64.9,144.4,144.2,144.4c126.6,0,253.2,0,379.8,0
			C604.9,670.1,669.8,605.1,669.8,525.7z"/>
		<path fill="#DAD9D9" d="M669.8,145.6c0,126.7,0,253.4,0,380.2c0,79.4-64.9,144.4-144.2,144.4c-126.6,0-253.2,0-379.8,0
			c-79.3,0-144.2-64.9-144.2-144.4c0-125.8,0-251.6,0-377.5c0-80.9,66.2-147.2,147-147.2c125.7,0,251.3,0,377,0
			C604.9,1.1,669.8,66.1,669.8,145.6z M668.6,524.7c0-126.3,0-252.5,0-378.8c0-79.4-64.9-144.4-144.2-144.4
			c-125.2,0-250.3,0-375.5,0c-21.1,0-41.2,4.5-59.4,12.7C51.7,30.5,22.2,62.7,9.7,102.3c0,0.1-0.1,0.2-0.1,0.4
			c-4.8,14.4-7.3,29.8-7.3,45.8c0,125.4,0,250.9,0,376.3c0,79.3,64.8,144.3,144,144.3c126.1,0,252.1,0,378.1,0
			C603.7,669.1,668.6,604.1,668.6,524.7z"/>
		<path fill="#D4D3D3" d="M668.6,145.9c0,126.3,0,252.5,0,378.8c0,79.4-64.9,144.4-144.2,144.4c-126.1,0-252.1,0-378.1,0
			c-79.2,0-144-64.9-144-144.3c0-125.5,0-250.9,0-376.3c0-16,2.6-31.4,7.3-45.8c-3.2,10.4-5.3,21.2-6.1,32.5
			c-0.4,4.4-0.6,8.9-0.6,13.4c0,125.1,0,250.1,0,375.2C2.9,603,67.6,668,146.8,668c125.5,0,250.9,0,376.5,0
			c79.2,0,143.9-64.9,143.9-144.4c0-125.8,0-251.5,0-377.4C667.3,66.9,602.5,2,523.3,2C398.6,2,273.9,2,149.1,2
			c-11.6,0-22.8,1.4-33.6,3.9c-9,1.9-17.7,4.7-26,8.3c18.2-8.1,38.3-12.7,59.4-12.7c125.2,0,250.3,0,375.5,0
			C603.7,1.6,668.6,66.5,668.6,145.9z"/>
		<path fill="#CECDCD" d="M667.3,146.3c0,125.9,0,251.6,0,377.4c0,79.4-64.7,144.4-143.9,144.4c-125.6,0-251,0-376.5,0
			C67.6,668,2.9,603,2.9,523.7c0-125.1,0-250.1,0-375.2c0-4.5,0.2-9,0.6-13.4c-0.2,3.2-0.3,6.4-0.3,9.6v373c0,4.3,0.2,8.5,0.6,12.7
			c0,0,0,0,0,0c4.1,75.8,67.1,136.4,143.6,136.4c125,0,249.9,0,374.8,0c79.1,0,143.9-64.9,143.9-144.3c0-125.4,0-250.6,0-375.9
			C666,67.3,601.3,2.4,522.2,2.4c-124.3,0-248.5,0-372.9,0c-5.1,0-10.1,0.3-15,0.8c0,0-0.1,0-0.1,0c-6.4,0.5-12.6,1.4-18.7,2.7
			C126.3,3.3,137.5,2,149.1,2c124.8,0,249.5,0,374.3,0C602.5,2,667.3,66.9,667.3,146.3z"/>
		<path fill="#C8C7C7" d="M666,146.7c0,125.3,0,250.6,0,375.9c0,79.3-64.7,144.3-143.9,144.3c-124.9,0-249.8,0-374.8,0
			c-76.5,0-139.5-60.7-143.6-136.4c0.7,7.8,2,15.4,4,22.8c14.5,64.2,72,112.5,140.2,112.5c124.4,0,248.8,0,373.2,0
			c79.1,0,143.7-64.9,143.7-144.2c0-124.9,0-249.7,0-374.6c0-78.4-63.2-142.7-141-144.2c0,0-0.1,0-0.2,0c-1.8-0.1-3.6-0.1-5.5-0.1
			h-373c-3.7,0-7.3,0.1-10.9,0.4c4.9-0.5,9.9-0.8,15-0.8c124.3,0,248.6,0,372.9,0C601.3,2.4,666,67.3,666,146.7z"/>
		<path fill="#C2C1C1" d="M664.8,147.1c0,124.9,0,249.6,0,374.6c0,79.3-64.7,144.2-143.7,144.2c-124.4,0-248.8,0-373.2,0
			c-68.2,0-125.7-48.3-140.2-112.5c2.5,9.7,6.1,19,10.5,27.8c22.9,49.2,72.7,83.6,130.2,83.6c123.8,0,247.7,0,371.5,0
			c79,0,143.6-64.9,143.6-144.2c0-124.3,0-248.7,0-373.1c0-67-46.2-123.8-108.2-139.7c0,0-0.1,0-0.1,0c-10.1-2.8-20.6-4.4-31.5-4.8
			C601.6,4.3,664.8,68.6,664.8,147.1z"/>
		<path fill="#BCBBBB" d="M663.5,147.4c0,124.4,0,248.8,0,373.1c0,79.3-64.6,144.2-143.6,144.2c-123.8,0-247.7,0-371.5,0
			c-57.5,0-107.3-34.3-130.2-83.6C23.7,592,30.4,602,38.3,611c0,0,0,0.1,0.1,0.1c26.4,32.1,66.2,52.6,110.6,52.6h369.9
			c78.9,0,143.4-64.9,143.4-144.1V147.9c0-44.5-20.3-84.5-52.1-111c-0.1-0.1-0.1-0.1-0.2-0.1c-15.7-13.4-34.3-23.4-54.6-28.9
			C617.4,23.7,663.5,80.4,663.5,147.4z"/>
		<path fill="#B6B5B4" d="M662.3,147.9v371.7c0,79.3-64.5,144.1-143.4,144.1H148.9c-44.4,0-84.2-20.5-110.6-52.6
			c26.1,29.8,64.3,48.7,106.8,48.7h373c78.1,0,142-63.9,142-142v-373c0-43.1-19.4-81.9-50-107.9C642,63.3,662.3,103.3,662.3,147.9z"
			/>
		<radialGradient id="SVGID_9_" cx="331.6685" cy="331.7056" r="464.2749" gradientUnits="userSpaceOnUse">
			<stop  offset="0" style="stop-color:#FFFFFF"/>
			<stop  offset="0.5413" style="stop-color:#FDFCFC"/>
			<stop  offset="0.9754" style="stop-color:#F6F4F2"/>
			<stop  offset="1" style="stop-color:#F5F3F1"/>
		</radialGradient>
		<path fill="url(#SVGID_9_)" d="M660.1,144.8v373c0,78-63.9,142-142,142h-373c-42.5,0-80.7-18.9-106.8-48.7c0,0-0.1-0.1-0.1-0.1
			C17.8,586,5.5,554.2,5.5,519.5V148.9C5.5,69,70.5,3.6,150,3.6h368.9c34.5,0,66.3,12.4,91.1,33c0.1,0,0.1,0.1,0.2,0.1
			C640.7,62.9,660.1,101.7,660.1,144.8z M639,517.8v-373c0-66.5-54.4-120.8-120.8-120.8h-373c-66.4,0-120.8,54.4-120.8,120.8v373
			c0,66.5,54.4,120.7,120.8,120.7h373C584.6,638.5,639,584.3,639,517.8z"/>
		<path fill="#8A001D" d="M639,144.8v373c0,66.5-54.4,120.7-120.8,120.7h-373c-66.4,0-120.8-54.3-120.8-120.7v-373
			c0-66.5,54.4-120.8,120.8-120.8h373C584.6,23.9,639,78.3,639,144.8z M531.4,358.6v-55l-44.3-12.3c-3.8-14.5-9.4-28.7-17.3-41.9
			l22.4-40l-39-38.9l-40,22.5c-13.2-7.8-27.3-13.6-41.8-17.3L359,131.6l-55-0.1l-12.4,44.3c-14.5,3.7-28.6,9.5-41.8,17.4l-40-22.5
			l-38.9,39l22.5,40c-7.9,13.2-13.6,27.3-17.3,41.8L131.9,304v55l44.3,12.3c3.7,14.5,9.4,28.6,17.4,41.8l-22.5,40l39,38.9l40-22.5
			c13.2,7.8,27.3,13.6,41.8,17.3l12.5,44.1h55l12.4-44.2c14.5-3.8,28.6-9.5,41.8-17.3l40,22.5l38.9-39l-22.5-40
			c7.8-13.2,13.5-27.3,17.2-41.8L531.4,358.6z"/>
		<radialGradient id="SVGID_10_" cx="331.6689" cy="331.2212" r="464.5415" gradientUnits="userSpaceOnUse">
			<stop  offset="0" style="stop-color:#FFFFFF"/>
			<stop  offset="0.5413" style="stop-color:#FDFCFC"/>
			<stop  offset="0.9754" style="stop-color:#F6F4F2"/>
			<stop  offset="1" style="stop-color:#F5F3F1"/>
		</radialGradient>
		<path fill="url(#SVGID_10_)" d="M555.4,7.7c20.4,5.6,39,15.6,54.6,28.9c-24.8-20.6-56.6-33-91.1-33H150C70.5,3.6,5.5,69,5.5,148.9
			v370.7c0,34.6,12.3,66.5,32.8,91.5c-7.9-9-14.6-19-20.1-29.8c-8.6-18.4-13.4-39-13.4-60.6c0-124,0-247.8,0-371.8
			C4.9,68.7,70.1,3.3,149.8,3.3c123.4,0,246.7,0,370.1,0c12.2,0,24,1.5,35.3,4.4C555.3,7.7,555.3,7.7,555.4,7.7z"/>
		<radialGradient id="SVGID_11_" cx="331.6709" cy="331.2407" r="464.6163" gradientUnits="userSpaceOnUse">
			<stop  offset="0" style="stop-color:#FFFFFF"/>
			<stop  offset="0.5413" style="stop-color:#FDFCFC"/>
			<stop  offset="0.9754" style="stop-color:#F6F4F2"/>
			<stop  offset="1" style="stop-color:#F5F3F1"/>
		</radialGradient>
		<path fill="url(#SVGID_11_)" d="M531.4,303.6v55l-44.2,12.4c-3.7,14.6-9.4,28.7-17.2,41.8l22.5,40l-38.9,39l-40-22.5
			c-13.3,7.8-27.4,13.6-41.8,17.3L359.3,531h-55l-12.5-44.1c-14.5-3.7-28.6-9.5-41.8-17.3l-40,22.5l-39-38.9l22.5-40
			c-7.9-13.3-13.6-27.3-17.4-41.8L131.9,359v-55l44.2-12.5c3.7-14.5,9.4-28.6,17.3-41.8l-22.5-40l38.9-39l40,22.5
			c13.3-7.9,27.4-13.6,41.8-17.4l12.4-44.3l55,0.1l12.5,44.1c14.5,3.7,28.6,9.5,41.8,17.3l40-22.5l39,38.9l-22.4,40
			c7.8,13.3,13.5,27.4,17.3,41.9L531.4,303.6z M412,411.2c44.2-44.3,44-116.1-0.4-160.2c-44.3-44.1-116.1-43.9-160.2,0.4
			c-44.1,44.4-44,116.1,0.4,160.2C296.1,455.7,367.8,455.5,412,411.2z"/>
		<radialGradient id="SVGID_12_" cx="331.6689" cy="331.2739" r="464.5789" gradientUnits="userSpaceOnUse">
			<stop  offset="0" style="stop-color:#FFFFFF"/>
			<stop  offset="0.5413" style="stop-color:#FDFCFC"/>
			<stop  offset="0.9754" style="stop-color:#F6F4F2"/>
			<stop  offset="1" style="stop-color:#F5F3F1"/>
		</radialGradient>
		<path fill="url(#SVGID_12_)" d="M523.8,2.9c10.8,0.4,21.4,2.1,31.5,4.8c-11.3-2.9-23.1-4.4-35.3-4.4c-123.4,0-246.8,0-370.1,0
			C70.1,3.3,4.9,68.7,4.9,148.8c0,124,0,247.8,0,371.8c0,21.6,4.8,42.1,13.4,60.6c-4.4-8.8-8-18.1-10.5-27.8
			c-2.3-10.2-3.5-20.8-3.5-31.7c0-124.4,0-248.6,0-372.9C4.2,68.4,69.6,2.9,149.6,2.9c123.8,0,247.6,0,371.5,0c0.8,0,1.7,0,2.5,0
			C523.7,2.9,523.7,2.9,523.8,2.9z"/>
		<radialGradient id="SVGID_13_" cx="331.6689" cy="331.2744" r="464.5795" gradientUnits="userSpaceOnUse">
			<stop  offset="0" style="stop-color:#FFFFFF"/>
			<stop  offset="0.5413" style="stop-color:#FDFCFC"/>
			<stop  offset="0.9754" style="stop-color:#F6F4F2"/>
			<stop  offset="1" style="stop-color:#F5F3F1"/>
		</radialGradient>
		<path fill="url(#SVGID_13_)" d="M523.6,2.9c-0.8,0-1.7,0-2.5,0c-123.9,0-247.7,0-371.5,0C69.6,2.9,4.2,68.4,4.2,148.7
			c0,124.3,0,248.5,0,372.9c0,10.9,1.2,21.5,3.5,31.7c-1.9-7.4-3.3-15-4-22.8c0,0,0,0,0,0c-0.1-2.6-0.2-5.2-0.2-7.8
			c0-124.7,0-249.4,0-374.1C3.6,73.3,61.1,10.9,134.2,3.2c0.1,0,0.1,0,0.1,0c3.6-0.3,7.2-0.4,10.9-0.4h373
			C520,2.8,521.8,2.8,523.6,2.9z"/>
		<path fill="#8A001D" d="M411.6,251c44.4,44.1,44.6,115.9,0.4,160.2c-44.1,44.3-115.9,44.6-160.2,0.4
			c-44.4-44.1-44.5-115.8-0.4-160.2C295.5,207,367.2,206.8,411.6,251z"/>
		<radialGradient id="SVGID_14_" cx="331.6685" cy="331.2749" r="464.5793" gradientUnits="userSpaceOnUse">
			<stop  offset="0" style="stop-color:#FFFFFF"/>
			<stop  offset="0.5413" style="stop-color:#FDFCFC"/>
			<stop  offset="0.9754" style="stop-color:#F6F4F2"/>
			<stop  offset="1" style="stop-color:#F5F3F1"/>
		</radialGradient>
		<path fill="url(#SVGID_14_)" d="M115.5,5.9c6.1-1.3,12.4-2.2,18.7-2.7C61.1,10.9,3.6,73.3,3.6,148.6c0,124.7,0,249.4,0,374.1
			c0,2.6,0.1,5.2,0.2,7.8c-0.4-4.2-0.6-8.4-0.6-12.7v-373c0-3.2,0.1-6.5,0.3-9.6C9.3,72.1,55.3,20.3,115.5,5.9z"/>
		<radialGradient id="SVGID_15_" cx="331.9033" cy="331.3057" r="464.7947" gradientUnits="userSpaceOnUse">
			<stop  offset="0" style="stop-color:#FFFFFF"/>
			<stop  offset="0.5413" style="stop-color:#FDFCFC"/>
			<stop  offset="0.9754" style="stop-color:#F6F4F2"/>
			<stop  offset="1" style="stop-color:#F5F3F1"/>
		</radialGradient>
		<path fill="url(#SVGID_15_)" d="M89.5,14.2c8.3-3.6,17-6.4,26-8.3C55.3,20.3,9.3,72.1,3.5,135.1c0.8-11.2,2.8-22.1,6.1-32.5
			c0-0.1,0.1-0.2,0.1-0.4C22.8,63,52.1,31,89.5,14.2z"/>
		<radialGradient id="SVGID_16_" cx="331.667" cy="331.2729" r="464.5765" gradientUnits="userSpaceOnUse">
			<stop  offset="0" style="stop-color:#FFFFFF"/>
			<stop  offset="0.5413" style="stop-color:#FDFCFC"/>
			<stop  offset="0.9754" style="stop-color:#F6F4F2"/>
			<stop  offset="1" style="stop-color:#F5F3F1"/>
		</radialGradient>
		<path fill="url(#SVGID_16_)" d="M89.5,14.2C52.1,31,22.8,63,9.7,102.3C22.2,62.7,51.7,30.5,89.5,14.2z"/>
	</g>
	<g>
	</g>
</g>
<text transform="matrix(1 0 0 1 256.1255 362.6255)" fill="#FFFFFF" font-family="'MyriadPro-Bold'" font-size="100">&lt;/&gt;</text>
</svg>
