<?xml version="1.0" encoding="utf-8"?>
<!-- Generator: Adobe Illustrator 13.0.2, SVG Export Plug-In  -->
<!DOCTYPE svg PUBLIC "-//W3C//DTD SVG 1.1//EN" "http://www.w3.org/Graphics/SVG/1.1/DTD/svg11.dtd" [
	<!ENTITY ns_flows "http://ns.adobe.com/Flows/1.0/">
]>
<svg version="1.1"
	 xmlns="http://www.w3.org/2000/svg" xmlns:xlink="http://www.w3.org/1999/xlink" xmlns:a="http://ns.adobe.com/AdobeSVGViewerExtensions/3.0/"
	 x="0px" y="0px" width="673px" height="673px" viewBox="-0.2 -0.8 673 673" enable-background="new -0.2 -0.8 673 673"
	 xml:space="preserve">
<defs>
</defs>
<path fill="#E5E5E5" d="M672.1,144.5v383c0,79.5-65,144.5-144.5,144.5H144.4C65,672,0,607,0,527.6V147.9C0,66.5,66.5,0,147.9,0
	h379.7C607,0,672.1,65,672.1,144.5z M670.7,526.5c0-127.2,0-254.4,0-381.6c0-79.4-64.9-144.4-144.4-144.4c-126.1,0-252.1,0-378.3,0
	C67,0.4,0.6,66.8,0.6,148c0,126.2,0,252.4,0,378.6C0.6,606,65.6,671,144.9,671c127.2,0,254.3,0,381.5,0
	C605.8,671,670.7,606,670.7,526.5z"/>
<path fill="#E0DFDF" d="M670.7,144.9c0,127.2,0,254.4,0,381.6c0,79.5-64.9,144.5-144.4,144.5c-127.2,0-254.2,0-381.5,0
	C65.6,671,0.6,606,0.6,526.6c0-126.3,0-252.4,0-378.6C0.6,66.8,67,0.4,148.1,0.4c126.1,0,252.2,0,378.3,0
	C605.8,0.4,670.7,65.5,670.7,144.9z M669.5,525.5c0-126.7,0-253.4,0-380.2c0-79.4-64.9-144.4-144.2-144.4c-125.7,0-251.3,0-377,0
	C67.5,0.9,1.3,67.1,1.3,148c0,125.9,0,251.6,0,377.5c0,79.4,64.9,144.4,144.2,144.4c126.6,0,253.2,0,379.8,0
	C604.7,669.9,669.5,604.9,669.5,525.5z"/>
<path fill="#DAD9D9" d="M669.5,145.3c0,126.7,0,253.4,0,380.2c0,79.4-64.9,144.4-144.2,144.4c-126.6,0-253.2,0-379.8,0
	C66.2,669.9,1.3,605,1.3,525.5c0-125.8,0-251.6,0-377.5c0-80.9,66.2-147.2,147-147.2c125.7,0,251.3,0,377,0
	C604.7,0.9,669.5,65.9,669.5,145.3z M668.3,524.5c0-126.3,0-252.5,0-378.8c0-79.4-64.9-144.4-144.2-144.4c-125.2,0-250.3,0-375.5,0
	c-21.1,0-41.2,4.5-59.4,12.7C51.4,30.2,22,62.5,9.5,102c0,0.1-0.1,0.2-0.1,0.4C4.6,116.8,2,132.2,2,148.2C2,273.6,2,399,2,524.5
	c0,79.3,64.8,144.3,144,144.3c126.1,0,252.1,0,378.1,0C603.4,668.8,668.3,603.9,668.3,524.5z"/>
<path fill="#D4D3D3" d="M668.3,145.7c0,126.3,0,252.5,0,378.8c0,79.4-64.9,144.4-144.2,144.4c-126.1,0-252.1,0-378.1,0
	c-79.2,0-144-64.9-144-144.3C2,399,2,273.6,2,148.2c0-16,2.6-31.4,7.3-45.8c-3.2,10.4-5.3,21.2-6.1,32.5c-0.4,4.4-0.6,8.9-0.6,13.4
	c0,125.1,0,250.1,0,375.2c0,79.3,64.7,144.3,143.9,144.3c125.5,0,250.9,0,376.5,0c79.2,0,143.9-64.9,143.9-144.4
	c0-125.8,0-251.5,0-377.4C667,66.7,602.3,1.7,523.1,1.7c-124.8,0-249.5,0-374.3,0c-11.6,0-22.8,1.4-33.6,3.9c-9,1.9-17.7,4.7-26,8.3
	c18.2-8.1,38.3-12.7,59.4-12.7c125.2,0,250.3,0,375.5,0C603.4,1.3,668.3,66.2,668.3,145.7z"/>
<path fill="#CECDCD" d="M667,146c0,125.9,0,251.6,0,377.4c0,79.4-64.7,144.4-143.9,144.4c-125.6,0-251,0-376.5,0
	c-79.2,0-143.9-64.9-143.9-144.3c0-125.1,0-250.1,0-375.2c0-4.5,0.2-9,0.6-13.4c-0.2,3.2-0.3,6.4-0.3,9.6v373
	c0,4.3,0.2,8.5,0.6,12.7c0,0,0,0,0,0C7.6,606,70.6,666.7,147.1,666.7c125,0,249.9,0,374.8,0c79.1,0,143.9-64.9,143.9-144.3
	c0-125.4,0-250.6,0-375.9C665.8,67,601.1,2.2,521.9,2.2c-124.3,0-248.5,0-372.9,0c-5.1,0-10.1,0.3-15,0.8c0,0-0.1,0-0.1,0
	c-6.4,0.5-12.6,1.4-18.7,2.7c10.8-2.6,22.1-3.9,33.6-3.9c124.8,0,249.5,0,374.3,0C602.3,1.7,667,66.7,667,146z"/>
<path fill="#C8C7C7" d="M665.8,146.5c0,125.3,0,250.6,0,375.9c0,79.3-64.7,144.3-143.9,144.3c-124.9,0-249.8,0-374.8,0
	C70.6,666.7,7.6,606,3.5,530.2c0.7,7.8,2,15.4,4,22.8c14.5,64.2,72,112.5,140.2,112.5c124.4,0,248.8,0,373.2,0
	c79.1,0,143.7-64.9,143.7-144.2c0-124.9,0-249.7,0-374.6c0-78.4-63.2-142.7-141-144.2c0,0-0.1,0-0.2,0c-1.8-0.1-3.6-0.1-5.5-0.1
	h-373c-3.7,0-7.3,0.1-10.9,0.4c4.9-0.5,9.9-0.8,15-0.8c124.3,0,248.6,0,372.9,0C601.1,2.2,665.8,67,665.8,146.5z"/>
<path fill="#C2C1C1" d="M664.6,146.8c0,124.9,0,249.6,0,374.6c0,79.3-64.7,144.2-143.7,144.2c-124.4,0-248.8,0-373.2,0
	C79.5,665.6,22,617.3,7.5,553.1c2.5,9.7,6.1,19,10.5,27.8c22.9,49.2,72.7,83.6,130.2,83.6c123.8,0,247.7,0,371.5,0
	c79,0,143.6-64.9,143.6-144.2c0-124.3,0-248.7,0-373.1c0-67-46.2-123.8-108.2-139.7c0,0-0.1,0-0.1,0c-10.1-2.8-20.6-4.4-31.5-4.8
	C601.4,4.1,664.6,68.4,664.6,146.8z"/>
<path fill="#BCBBBB" d="M663.3,147.2c0,124.4,0,248.8,0,373.1c0,79.3-64.6,144.2-143.6,144.2c-123.8,0-247.7,0-371.5,0
	c-57.5,0-107.3-34.3-130.2-83.6c5.4,10.8,12.2,20.8,20.1,29.8c0,0,0,0.1,0.1,0.1c26.4,32.1,66.2,52.6,110.6,52.6h369.9
	c78.9,0,143.4-64.9,143.4-144.1V147.6c0-44.5-20.3-84.5-52.1-111c-0.1-0.1-0.1-0.1-0.2-0.1c-15.7-13.4-34.3-23.4-54.6-28.9
	C617.1,23.4,663.3,80.2,663.3,147.2z"/>
<path fill="#B6B5B4" d="M662,147.6v371.7c0,79.3-64.5,144.1-143.4,144.1H148.7c-44.4,0-84.2-20.5-110.6-52.6
	c26.1,29.8,64.3,48.7,106.8,48.7h373c78.1,0,142-63.9,142-142v-373c0-43.1-19.4-81.9-50-107.9C641.7,63.1,662,103.1,662,147.6z"/>
<radialGradient id="SVGID_1_" cx="331.4175" cy="331.4551" r="464.2749" gradientUnits="userSpaceOnUse">
	<stop  offset="0" style="stop-color:#FFFFFF"/>
	<stop  offset="0.5413" style="stop-color:#FDFCFC"/>
	<stop  offset="0.9754" style="stop-color:#F6F4F2"/>
	<stop  offset="1" style="stop-color:#F5F3F1"/>
</radialGradient>
<path fill="url(#SVGID_1_)" d="M659.9,144.5v373c0,78-63.9,142-142,142h-373c-42.5,0-80.7-18.9-106.8-48.7c0,0-0.1-0.1-0.1-0.1
	c-20.5-24.9-32.8-56.8-32.8-91.5V148.6c0-79.9,65-145.2,144.5-145.2h368.9c34.5,0,66.3,12.4,91.1,33c0.1,0,0.1,0.1,0.2,0.1
	C640.4,62.7,659.9,101.4,659.9,144.5z M638.7,517.5v-373c0-66.5-54.4-120.8-120.8-120.8h-373c-66.4,0-120.8,54.4-120.8,120.8v373
	c0,66.5,54.4,120.7,120.8,120.7h373C584.4,638.3,638.7,584,638.7,517.5z"/>
<path fill="#999900" d="M638.7,144.5v373c0,66.5-54.4,120.7-120.8,120.7h-373c-66.4,0-120.8-54.3-120.8-120.7v-373
	c0-66.5,54.4-120.8,120.8-120.8h373C584.4,23.7,638.7,78.1,638.7,144.5z M531.1,358.4v-55L486.9,291c-3.8-14.5-9.4-28.7-17.3-41.9
	l22.4-40l-39-38.9l-40,22.5c-13.2-7.8-27.3-13.6-41.8-17.3l-12.5-44.1l-55-0.1l-12.4,44.3c-14.5,3.7-28.6,9.5-41.8,17.4l-40-22.5
	l-38.9,39l22.5,40c-7.9,13.2-13.6,27.3-17.3,41.8l-44.2,12.5v55L176,371c3.7,14.5,9.4,28.6,17.4,41.8l-22.5,40l39,38.9l40-22.5
	c13.2,7.8,27.3,13.6,41.8,17.3l12.5,44.1h55l12.4-44.2c14.5-3.8,28.6-9.5,41.8-17.3l40,22.5l38.9-39l-22.5-40
	c7.8-13.2,13.5-27.3,17.2-41.8L531.1,358.4z"/>
<radialGradient id="SVGID_2_" cx="331.418" cy="330.9707" r="464.5415" gradientUnits="userSpaceOnUse">
	<stop  offset="0" style="stop-color:#FFFFFF"/>
	<stop  offset="0.5413" style="stop-color:#FDFCFC"/>
	<stop  offset="0.9754" style="stop-color:#F6F4F2"/>
	<stop  offset="1" style="stop-color:#F5F3F1"/>
</radialGradient>
<path fill="url(#SVGID_2_)" d="M555.1,7.5c20.4,5.6,39,15.6,54.6,28.9c-24.8-20.6-56.6-33-91.1-33H149.8
	C70.3,3.4,5.3,68.8,5.3,148.6v370.7c0,34.6,12.3,66.5,32.8,91.5c-7.9-9-14.6-19-20.1-29.8c-8.6-18.4-13.4-39-13.4-60.6
	c0-124,0-247.8,0-371.8C4.6,68.5,69.8,3,149.5,3c123.4,0,246.7,0,370.1,0c12.2,0,24,1.5,35.3,4.4C555,7.5,555.1,7.5,555.1,7.5z"/>
<radialGradient id="SVGID_3_" cx="331.4199" cy="330.9902" r="464.6163" gradientUnits="userSpaceOnUse">
	<stop  offset="0" style="stop-color:#FFFFFF"/>
	<stop  offset="0.5413" style="stop-color:#FDFCFC"/>
	<stop  offset="0.9754" style="stop-color:#F6F4F2"/>
	<stop  offset="1" style="stop-color:#F5F3F1"/>
</radialGradient>
<path fill="url(#SVGID_3_)" d="M531.1,303.3v55l-44.2,12.4c-3.7,14.6-9.4,28.7-17.2,41.8l22.5,40l-38.9,39l-40-22.5
	c-13.3,7.8-27.4,13.6-41.8,17.3l-12.4,44.2h-55l-12.5-44.1c-14.5-3.7-28.6-9.5-41.8-17.3l-40,22.5l-39-38.9l22.5-40
	c-7.9-13.3-13.6-27.3-17.4-41.8l-44.3-12.3v-55l44.2-12.5c3.7-14.5,9.4-28.6,17.3-41.8l-22.5-40l38.9-39l40,22.5
	c13.3-7.9,27.4-13.6,41.8-17.4l12.4-44.3l55,0.1l12.5,44.1c14.5,3.7,28.6,9.5,41.8,17.3l40-22.5l39,38.9l-22.4,40
	c7.8,13.3,13.5,27.4,17.3,41.9L531.1,303.3z M411.7,410.9c44.2-44.3,44-116.1-0.4-160.2c-44.3-44.1-116.1-43.9-160.2,0.4
	c-44.1,44.4-44,116.1,0.4,160.2C295.8,455.5,367.6,455.3,411.7,410.9z"/>
<radialGradient id="SVGID_4_" cx="331.418" cy="331.0234" r="464.5789" gradientUnits="userSpaceOnUse">
	<stop  offset="0" style="stop-color:#FFFFFF"/>
	<stop  offset="0.5413" style="stop-color:#FDFCFC"/>
	<stop  offset="0.9754" style="stop-color:#F6F4F2"/>
	<stop  offset="1" style="stop-color:#F5F3F1"/>
</radialGradient>
<path fill="url(#SVGID_4_)" d="M523.5,2.6c10.8,0.4,21.4,2.1,31.5,4.8C543.7,4.6,531.9,3,519.7,3C396.3,3,272.9,3,149.5,3
	C69.8,3,4.6,68.5,4.6,148.5c0,124,0,247.8,0,371.8c0,21.6,4.8,42.1,13.4,60.6c-4.4-8.8-8-18.1-10.5-27.8C5.2,542.9,4,532.3,4,521.4
	C4,397,4,272.7,4,148.5C4,68.2,69.3,2.6,149.3,2.6c123.8,0,247.6,0,371.5,0c0.8,0,1.7,0,2.5,0C523.4,2.6,523.5,2.6,523.5,2.6z"/>
<radialGradient id="SVGID_5_" cx="331.418" cy="331.0239" r="464.5795" gradientUnits="userSpaceOnUse">
	<stop  offset="0" style="stop-color:#FFFFFF"/>
	<stop  offset="0.5413" style="stop-color:#FDFCFC"/>
	<stop  offset="0.9754" style="stop-color:#F6F4F2"/>
	<stop  offset="1" style="stop-color:#F5F3F1"/>
</radialGradient>
<path fill="url(#SVGID_5_)" d="M523.4,2.6c-0.8,0-1.7,0-2.5,0c-123.9,0-247.7,0-371.5,0C69.3,2.6,4,68.2,4,148.5
	C4,272.7,4,397,4,521.4c0,10.9,1.2,21.5,3.5,31.7c-1.9-7.4-3.3-15-4-22.8c0,0,0,0,0,0c-0.1-2.6-0.2-5.2-0.2-7.8
	c0-124.7,0-249.4,0-374.1C3.3,73,60.8,10.6,133.9,3c0.1,0,0.1,0,0.1,0c3.6-0.3,7.2-0.4,10.9-0.4h373C519.7,2.5,521.6,2.6,523.4,2.6z
	"/>
<path fill="#999900" d="M411.3,250.7c44.4,44.1,44.6,115.9,0.4,160.2c-44.1,44.3-115.9,44.6-160.2,0.4
	c-44.4-44.1-44.5-115.8-0.4-160.2C295.3,206.8,367,206.6,411.3,250.7z"/>
<radialGradient id="SVGID_6_" cx="331.4175" cy="331.0244" r="464.5793" gradientUnits="userSpaceOnUse">
	<stop  offset="0" style="stop-color:#FFFFFF"/>
	<stop  offset="0.5413" style="stop-color:#FDFCFC"/>
	<stop  offset="0.9754" style="stop-color:#F6F4F2"/>
	<stop  offset="1" style="stop-color:#F5F3F1"/>
</radialGradient>
<path fill="url(#SVGID_6_)" d="M115.2,5.7c6.1-1.3,12.4-2.2,18.7-2.7C60.8,10.6,3.3,73,3.3,148.3c0,124.7,0,249.4,0,374.1
	c0,2.6,0.1,5.2,0.2,7.8c-0.4-4.2-0.6-8.4-0.6-12.7v-373c0-3.2,0.1-6.5,0.3-9.6C9,71.8,55.1,20,115.2,5.7z"/>
<radialGradient id="SVGID_7_" cx="331.6523" cy="331.0552" r="464.7947" gradientUnits="userSpaceOnUse">
	<stop  offset="0" style="stop-color:#FFFFFF"/>
	<stop  offset="0.5413" style="stop-color:#FDFCFC"/>
	<stop  offset="0.9754" style="stop-color:#F6F4F2"/>
	<stop  offset="1" style="stop-color:#F5F3F1"/>
</radialGradient>
<path fill="url(#SVGID_7_)" d="M89.2,14c8.3-3.6,17-6.4,26-8.3C55.1,20,9,71.8,3.3,134.9c0.8-11.2,2.8-22.1,6.1-32.5
	c0-0.1,0.1-0.2,0.1-0.4C22.5,62.8,51.8,30.7,89.2,14z"/>
<radialGradient id="SVGID_8_" cx="331.416" cy="331.0225" r="464.5765" gradientUnits="userSpaceOnUse">
	<stop  offset="0" style="stop-color:#FFFFFF"/>
	<stop  offset="0.5413" style="stop-color:#FDFCFC"/>
	<stop  offset="0.9754" style="stop-color:#F6F4F2"/>
	<stop  offset="1" style="stop-color:#F5F3F1"/>
</radialGradient>
<path fill="url(#SVGID_8_)" d="M89.2,14C51.8,30.7,22.5,62.8,9.5,102C22,62.5,51.4,30.2,89.2,14z"/>
<text transform="matrix(1 0 0 1 255.8745 359.375)" fill="#FFFFFF" font-family="'MyriadPro-Bold'" font-size="100">&lt;/&gt;</text>
</svg>
